<?xml version="1.0" encoding="utf-8"?>
<!-- Generator: Adobe Illustrator 26.5.0, SVG Export Plug-In . SVG Version: 6.00 Build 0)  -->
<svg version="1.1" id="Layer_1" xmlns="http://www.w3.org/2000/svg" xmlns:xlink="http://www.w3.org/1999/xlink" x="0px" y="0px"
	 viewBox="0 0 510.2 252.3" style="enable-background:new 0 0 510.2 252.3;" xml:space="preserve">
<style type="text/css">
	.st0{fill:none;stroke:#EE3124;stroke-width:1.2238;}
	.st1{fill:#00447C;}
	.st2{fill:#EE3124;}
</style>
<line class="st0" x1="154.7" y1="209.9" x2="475.9" y2="209.9"/>
<g>
	<g>
		<path class="st1" d="M140.6,160.6c-1.8,0-3.5-0.6-4.9-1.7c-2-1.6-3.1-4-3.1-6.7c0-4.9,3.5-8.5,8-8.5c1.7,0,3.2,0.5,4.6,1.5l-0.2,2
			c-1.4-1.2-2.8-1.8-4.4-1.8c-3.5,0-6.1,2.8-6.1,6.8c0,3.9,2.5,6.7,6.1,6.7c1.7,0,3.3-0.7,4.9-2l-0.2,2.2
			C144,160,142.4,160.6,140.6,160.6"/>
		<path class="st1" d="M153.3,159.2c2,0,3.5-1.6,3.5-4.1s-1.5-4.1-3.5-4.1s-3.5,1.6-3.5,4.1S151.3,159.2,153.3,159.2 M153.3,149.7
			c3,0,5.3,2.2,5.3,5.4s-2.2,5.4-5.3,5.4c-3,0-5.3-2.2-5.3-5.4S150.3,149.7,153.3,149.7"/>
		<path class="st1" d="M163.5,150.2v6.1c0,1.8,0.6,2.7,2.1,2.7c1.8,0,3.7-1.3,3.7-4v-4.8h1.8v9.9l-1.6,0.5l-0.1-2.2
			c-1.3,1.5-2.7,2.2-4.1,2.2c-2.2,0-3.5-1.4-3.5-4v-6.3h1.7V150.2z"/>
		<path class="st1" d="M175.1,160.1v-9.9h1.8v1.5c1.2-1.2,2.5-1.8,4-1.8v1.8c-3,0.2-4,1.2-4,3.6v4.8H175.1z"/>
		<path class="st1" d="M187.4,160.3h-2.5c-1.3-0.9-1.4-2.1-1.4-4v-4.7h-2.1v-1.4h2.1v-3.1l1.8-0.5v3.5h2.8v1.4h-2.8v4.5
			C185.4,158.2,185.5,159.3,187.4,160.3"/>
	</g>
	<g>
		<path class="st1" d="M206.6,154.5l-3.1-7l-3.1,7H206.6z M203.5,143.8h0.2l7.4,16.3h-2l-1.8-4h-7.5l-1.8,4h-2L203.5,143.8z"/>
		<path class="st1" d="M217.7,159.1c2.2,0,3.7-1.6,3.7-4.1c0-2.4-1.3-3.9-3.3-3.9c-0.9,0-1.8,0.4-2.9,0.9v6.3
			C216.1,158.9,216.9,159.1,217.7,159.1 M215.1,164.4l-1.8,0.5v-14.7h1.8v0.5c1.1-0.6,2.2-0.8,3.1-0.8c3,0,5,2.1,5,5.2
			c0,3.2-2.1,5.4-5.3,5.4c-0.9,0-1.8-0.2-2.8-0.5V164.4z"/>
		<path class="st1" d="M230.8,159.1c2.2,0,3.7-1.6,3.7-4.1c0-2.4-1.3-3.9-3.3-3.9c-0.9,0-1.8,0.4-2.9,0.9v6.3
			C229.1,158.9,230,159.1,230.8,159.1 M228.2,164.4l-1.8,0.5v-14.7h1.8v0.5c1.1-0.6,2.2-0.8,3.1-0.8c3,0,5,2.1,5,5.2
			c0,3.2-2.1,5.4-5.3,5.4c-0.9,0-1.8-0.2-2.8-0.5V164.4z"/>
		<path class="st1" d="M244,159.2c2,0,3.5-1.6,3.5-4.1S246,151,244,151s-3.5,1.6-3.5,4.1S242,159.2,244,159.2 M244,149.7
			c3,0,5.3,2.2,5.3,5.4s-2.2,5.4-5.3,5.4c-3,0-5.3-2.2-5.3-5.4C238.7,151.9,241,149.7,244,149.7"/>
		<path class="st1" d="M252.6,160.1v-9.9l1.8-0.5V160h-1.8V160.1z M253.5,145.2c0.7,0,1.3,0.6,1.3,1.3c0,0.7-0.6,1.3-1.3,1.3
			s-1.3-0.6-1.3-1.3C252.2,145.8,252.8,145.2,253.5,145.2"/>
		<path class="st1" d="M258.6,160.1v-9.9h1.8v2c1.2-1.5,2.6-2.3,4.1-2.3c2.2,0,3.5,1.4,3.5,4v6.1h-1.8v-5.9c0-1.8-0.6-2.7-2.1-2.7
			c-1.8,0-3.7,1.3-3.7,4v4.6L258.6,160.1L258.6,160.1z"/>
		<path class="st1" d="M276.2,160.3h-2.5c-1.3-0.9-1.4-2.1-1.4-4v-4.7h-2.1v-1.4h2.1v-3.1l1.8-0.5v3.5h2.8v1.4h-2.8v4.5
			C274.1,158.2,274.2,159.3,276.2,160.3"/>
		<path class="st1" d="M283.9,151c-1.7,0-3.2,1.3-3.5,3.2l6.4-0.2C286.7,152.2,285.6,151,283.9,151 M287.8,159.1
			c-1.2,0.9-2.6,1.4-4,1.4c-3,0-5.1-2.1-5.1-5.1c0-3.4,2.4-5.7,5.4-5.7c2.7,0,4.5,1.7,4.5,4.6c0,0.1,0,0.3,0,0.4l-0.2,0.5l-7.9,0.3
			c0.2,2.3,1.4,3.5,3.5,3.5c1.3,0,2.6-0.6,4-1.7L287.8,159.1z"/>
		<path class="st1" d="M298.9,151.9c-0.9-0.4-1.8-0.7-2.6-0.7c-2.2,0-3.7,1.6-3.7,4.1c0,2.4,1.4,3.9,3.1,3.9c1.1,0,2.1-0.4,3.1-1.3
			L298.9,151.9L298.9,151.9z M299.2,160.5l-0.1-1.2c-1.1,0.8-2.2,1.2-3.4,1.2c-2.8,0-4.8-2.1-4.8-5.1c0-3.3,2.4-5.6,5.5-5.6
			c0.9,0,1.7,0.2,2.5,0.7v-6l1.8-0.5v16.1L299.2,160.5z"/>
	</g>
	<g>
		<path class="st1" d="M316.3,158.9c2,0,3.3-1.2,3.3-2.8c0-1.6-1.2-2.5-3.1-3.4l-1.1-0.5c-2.4-1.1-3.5-2.6-3.5-4.5
			c0-2.3,1.8-4,4.6-4c1.4,0,2.8,0.4,3.8,1.1v2c-1.3-1-2.6-1.5-3.9-1.5c-1.7,0-2.8,1-2.8,2.4c0,1.3,1,2.2,3,3.1l1.1,0.5
			c2.5,1.1,3.8,2.8,3.8,4.8c0,2.6-2,4.6-5.1,4.6c-1.4,0-2.9-0.4-4.5-1.2l-0.2-2.2C313.4,158.2,314.9,158.9,316.3,158.9"/>
		<path class="st1" d="M329.5,159.1c2.2,0,3.7-1.6,3.7-4.1c0-2.4-1.3-3.9-3.3-3.9c-0.9,0-1.8,0.4-2.9,0.9v6.3
			C327.9,158.9,328.7,159.1,329.5,159.1 M326.9,164.4l-1.8,0.5v-14.7h1.8v0.5c1.1-0.6,2.2-0.8,3.1-0.8c3,0,5,2.1,5,5.2
			c0,3.2-2.1,5.4-5.3,5.4c-0.9,0-1.8-0.2-2.8-0.5V164.4z"/>
		<path class="st1" d="M342.8,151c-1.7,0-3.2,1.3-3.5,3.2l6.4-0.2C345.6,152.2,344.4,151,342.8,151 M346.6,159.1
			c-1.2,0.9-2.6,1.4-4,1.4c-3,0-5.1-2.1-5.1-5.1c0-3.4,2.4-5.7,5.4-5.7c2.7,0,4.5,1.7,4.5,4.6c0,0.1,0,0.3,0,0.4l-0.2,0.5l-7.9,0.3
			c0.2,2.3,1.4,3.5,3.5,3.5c1.3,0,2.6-0.6,4-1.7L346.6,159.1z"/>
		<path class="st1" d="M355,160.5c-3.1,0-5.2-2.2-5.2-5.3c0-3.3,2.1-5.5,5.5-5.5c1.2,0,2.3,0.3,3.5,0.9l-0.2,1.6
			c-1.2-0.7-2.2-1-3.3-1c-2.3,0-3.7,1.5-3.7,3.9c0,2.5,1.5,3.9,3.6,3.9c1.2,0,2.4-0.5,3.7-1.5l-0.2,1.9
			C357.5,160.1,356.2,160.5,355,160.5"/>
		<path class="st1" d="M363.9,160.1v-10.4l-1.8,0.5v9.9H363.9z M361.7,146.5c0,0.7,0.6,1.3,1.3,1.3c0.7,0,1.3-0.6,1.3-1.3
			s-0.6-1.3-1.3-1.3C362.2,145.2,361.7,145.8,361.7,146.5"/>
		<path class="st1" d="M375.3,151.9c-0.9-0.4-1.8-0.7-2.6-0.7c-2.2,0-3.7,1.6-3.7,4.1c0,2.4,1.3,3.9,3.3,3.9c0.9,0,1.8-0.4,2.9-0.9
			v-6.4H375.3z M375.7,160.5c-0.1-0.3-0.2-0.7-0.3-1.1c-1.2,0.7-2.3,1-3.4,1c-2.8,0-4.8-2.1-4.8-5.3c0-3.2,2.1-5.4,5.3-5.4
			c0.9,0,1.8,0.2,2.8,0.5l1.8-0.2v7.7c0,0.8,0.1,1.5,0.2,2.2L375.7,160.5z"/>
		<polygon class="st1" points="381.2,144.4 381.2,160.1 383.1,160.1 383.1,143.9 		"/>
	</g>
	<g>
		<path class="st1" d="M403.2,154.5l-3.1-7l-3.1,7H403.2z M400.1,143.8h0.2l7.4,16.3h-2l-1.8-4h-7.5l-1.8,4h-2L400.1,143.8z"/>
		<path class="st1" d="M417.6,151.9c-0.9-0.4-1.8-0.7-2.6-0.7c-2.2,0-3.7,1.6-3.7,4.1c0,2.4,1.4,3.9,3.1,3.9c1.1,0,2.1-0.4,3.1-1.3
			v-6H417.6z M417.8,160.5l-0.1-1.2c-1.1,0.8-2.2,1.2-3.4,1.2c-2.8,0-4.8-2.1-4.8-5.1c0-3.3,2.4-5.6,5.5-5.6c0.9,0,1.7,0.2,2.5,0.7
			v-6l1.8-0.5v16.1L417.8,160.5z"/>
		<polygon class="st1" points="421.9,150.2 423.8,150.2 426.8,157.3 430,150.2 431.5,150.2 426.8,160.5 426.4,160.5 		"/>
		<path class="st1" d="M438.4,159.2c2,0,3.5-1.6,3.5-4.1s-1.5-4.1-3.5-4.1s-3.5,1.6-3.5,4.1S436.4,159.2,438.4,159.2 M438.4,149.7
			c3,0,5.3,2.2,5.3,5.4s-2.2,5.4-5.3,5.4c-3,0-5.3-2.2-5.3-5.4S435.4,149.7,438.4,149.7"/>
		<path class="st1" d="M451.4,160.5c-3.1,0-5.2-2.2-5.2-5.3c0-3.3,2.1-5.5,5.5-5.5c1.2,0,2.3,0.3,3.5,0.9l-0.2,1.6
			c-1.2-0.7-2.2-1-3.3-1c-2.3,0-3.7,1.5-3.7,3.9c0,2.5,1.5,3.9,3.6,3.9c1.2,0,2.4-0.5,3.7-1.5l-0.2,1.9
			C453.9,160.1,452.7,160.5,451.4,160.5"/>
		<path class="st1" d="M465.6,151.9c-0.9-0.4-1.8-0.7-2.6-0.7c-2.2,0-3.7,1.6-3.7,4.1c0,2.4,1.3,3.9,3.3,3.9c0.9,0,1.8-0.4,2.9-0.9
			v-6.4H465.6z M466.1,160.5c-0.1-0.3-0.2-0.7-0.3-1.1c-1.2,0.7-2.3,1-3.4,1c-2.8,0-4.8-2.1-4.8-5.3c0-3.2,2.1-5.4,5.3-5.4
			c0.9,0,1.8,0.2,2.8,0.5l1.8-0.2v7.7c0,0.8,0.1,1.5,0.2,2.2L466.1,160.5z"/>
		<path class="st1" d="M475.9,160.3h-2.5c-1.3-0.9-1.4-2.1-1.4-4v-4.7h-2.1v-1.4h2.1v-3.1l1.8-0.5v3.5h2.8v1.4h-2.8v4.5
			C473.8,158.2,473.9,159.3,475.9,160.3"/>
		<path class="st1" d="M483.6,151c-1.7,0-3.2,1.3-3.5,3.2l6.4-0.2C486.4,152.2,485.3,151,483.6,151 M487.5,159.1
			c-1.2,0.9-2.6,1.4-4,1.4c-3,0-5.1-2.1-5.1-5.1c0-3.4,2.4-5.7,5.4-5.7c2.7,0,4.5,1.7,4.5,4.6c0,0.1,0,0.3,0,0.4l-0.2,0.5l-7.9,0.3
			c0.2,2.3,1.4,3.5,3.5,3.5c1.3,0,2.6-0.6,4-1.7L487.5,159.1z"/>
		<path class="st1" d="M494.4,159.1c1.1,0,1.8-0.6,1.8-1.4c0-1-0.7-1.3-1.9-1.8l-0.9-0.4c-1.7-0.7-2.5-1.4-2.5-2.9
			c0-1.8,1.2-2.9,3.1-2.9c1.2,0,2.3,0.4,3.4,1l-0.4,1.5c-1.1-0.8-2.2-1.2-3-1.2c-1,0-1.5,0.5-1.5,1.3c0,0.9,0.6,1.2,2,1.7l0.8,0.3
			c1.8,0.7,2.7,1.6,2.7,3.1c0,1.9-1.3,3.1-3.5,3.1c-1.3,0-2.7-0.4-3.8-1.3l0.2-1.7C492.2,158.6,493.4,159.1,494.4,159.1"/>
	</g>
</g>
<g>
	<g>
		<polygon class="st2" points="218.7,174.9 227.8,174.9 227.8,177.9 222.2,177.9 222.2,180.9 227.2,180.9 227.2,183.8 222.2,183.8 
			222.2,189.6 218.7,189.6 		"/>
		<path class="st2" d="M240.9,186.8c2.2,0,3.9-1.9,3.9-4.5s-1.7-4.5-3.9-4.5s-3.9,1.9-3.9,4.5C237,184.9,238.7,186.8,240.9,186.8
			 M235.6,176.7c1.4-1.4,3.3-2.2,5.3-2.2s3.9,0.8,5.3,2.2c1.4,1.5,2.2,3.4,2.2,5.6c0,1.8-0.5,3.5-1.5,4.8c-1.4,1.9-3.6,3-6,3
			c-2,0-3.9-0.8-5.3-2.2c-1.5-1.5-2.2-3.4-2.2-5.6C233.4,180.1,234.1,178.2,235.6,176.7"/>
		<path class="st2" d="M258.4,177.6v4.1h0.7c1.8,0,2.7-0.7,2.7-2.1c0-1.5-1-2-2.9-2H258.4z M255,174.9h3.8c1.9,0,3.3,0.1,4.6,1
			c1.1,0.8,1.7,2,1.7,3.3c0,1.8-1,3.3-2.7,4.1l4.5,6.3h-4l-3.9-5.8h-0.5v5.8h-3.4v-14.7H255z"/>
	</g>
	<path class="st2" d="M289.4,177.7c-2.5,0-4.2,1.9-4.2,4.6s1.7,4.5,4.2,4.5c1.5,0,3-0.6,4.4-1.9l-0.2,3.9c-1.2,0.9-2.8,1.3-4.4,1.3
		c-1.7,0-3.4-0.6-4.7-1.6c-1.9-1.5-2.9-3.7-2.9-6.2c0-2.2,0.8-4.1,2.2-5.6s3.4-2.3,5.5-2.3c1.6,0,3.1,0.5,4.5,1.4l-0.4,3.8
		C292.1,178.3,290.8,177.7,289.4,177.7"/>
	<polygon class="st2" points="300.2,174.9 303.7,174.9 303.7,180.3 309.4,180.3 309.4,174.9 312.8,174.9 312.8,189.6 309.4,189.6 
		309.4,183.5 303.7,183.5 303.7,189.6 300.2,189.6 	"/>
	<rect x="320.4" y="174.9" class="st2" width="3.5" height="14.7"/>
	<polygon class="st2" points="331.5,174.9 335,174.9 335,186.5 340.7,186.5 340.7,189.6 331.5,189.6 	"/>
	<path class="st2" d="M350.8,186.5c3.2,0,4.9-1.6,4.9-4.2s-1.7-4.2-4.9-4.2H350v8.4L350.8,186.5L350.8,186.5z M346.6,174.9h3.9
		c5.7,0,8.8,2.9,8.8,7.3c0,2.7-1.2,4.9-3.6,6.2c-1.6,0.9-3.2,1.1-5.1,1.1h-3.9L346.6,174.9L346.6,174.9z"/>
	<path class="st2" d="M369.3,177.6v4.1h0.7c1.8,0,2.7-0.7,2.7-2.1c0-1.5-1-2-2.9-2H369.3z M365.9,174.9h3.8c1.9,0,3.3,0.1,4.6,1
		c1.1,0.8,1.7,2,1.7,3.3c0,1.8-1,3.3-2.7,4.1l4.5,6.3h-4l-3.9-5.8h-0.5v5.8H366v-14.7H365.9z"/>
	<polygon class="st2" points="383.2,174.9 392.3,174.9 392.3,178 386.6,178 386.6,180.6 391.5,180.6 391.5,183.6 386.6,183.6 
		386.6,186.5 392.4,186.5 392.4,189.6 383.2,189.6 	"/>
	<polygon class="st2" points="399.2,174.5 399.5,174.5 408.7,183 408.7,174.9 411.9,174.9 411.9,190.2 411.6,190.2 402.4,181.6 
		402.4,189.6 399.2,189.6 	"/>
</g>
<path class="st1" d="M240.2,96.3c-7.3,0-12.5,5.6-12.5,13.5c0,8,5.1,13.3,12.5,13.3c4.4,0,8.7-1.8,13.1-5.5l-0.7,11.5
	c-3.7,2.5-8.2,3.9-12.9,3.9c-5.1,0-9.9-1.7-13.8-4.7c-5.5-4.3-8.6-10.8-8.6-18.4c0-6.4,2.3-12.2,6.4-16.5c4.2-4.3,9.9-6.7,16.1-6.7
	c4.8,0,9.2,1.3,13.3,4.1l-1.1,11.1C248.3,98.2,244.5,96.3,240.2,96.3"/>
<path class="st1" d="M295.3,117.8l-5.6-13.6l-5.8,13.6H295.3z M289.8,86.9h0.7l21.6,44.7h-10.8l-2.8-6.3h-17.6l-2.8,6.3h-10.4
	L289.8,86.9z"/>
<path class="st1" d="M340.1,123.8c3.7,0,5.9-1.8,5.9-4.2c0-3-2.8-4.2-7.2-6.8l-2.9-1.6c-5.7-3.2-8.4-7.2-8.4-12.4
	c0-6.8,5.6-11.9,14.1-11.9c3.2,0,6.9,0.8,11,2.2v10.2c-4.6-2.9-8.4-4.1-10.7-4.1c-2.9,0-4.7,1.3-4.7,3.5c0,1.5,1,2.8,3,3.9l5.1,2.8
	c6.3,3.5,10.8,6.7,10.8,13.6c0,8.1-5.9,14.1-15.8,14.1c-3.4,0-7.2-0.7-11.5-2.1l-0.9-11.6C332.3,122,336,123.8,340.1,123.8"/>
<path class="st1" d="M396.6,117.8l-5.6-13.6l-5.8,13.6H396.6z M391.1,86.9h0.7l21.6,44.7h-10.8l-2.8-6.3h-17.6l-2.8,6.3H369
	L391.1,86.9z"/>
<g>
	<path class="st1" d="M155.6,84c2.3-3.6,4.4-7.7,6.2-12.1c-11.2-2.2-18,4.6-24.1,13.9c-6.6,10-15.2,20.6-29,26.9
		c-13.8,6.3-25.2,6.3-35.3,2.1C63.4,110.5,51,99.3,44.2,95c-5.8-3.7-11.5-2.7-15.9,0.8c11.4,13.3,26.9,26.2,43.5,35.5
		c0,0-20.7,36-24.2,42.9c-4.5,9,2.3,11.3,6.7,6.6c4.5-4.8,14.9-16.7,21.5-22.4s16.7-4.4,23.7,3.1s14.5,19.3,21,29.8
		c6.6,10.5,12.7,11.8,17.5,9.2c-16.2-35.1-33.3-66.2-33.3-66.2C129.3,120.8,145.1,100.2,155.6,84"/>
	<path class="st1" d="M95.9,85.2c1.3,8.8-2.9,16.7-9.4,17.7s-12.8-5.4-14.2-14.2C71,79.9,75.2,72,81.7,71
		C88.2,70,94.6,76.4,95.9,85.2"/>
	<path class="st2" d="M21.9,86c-8.2-18.7-8.1-32.1-1.7-40.6c6.4-8.5,19.3-14,31.5-10.1s20.4,15.3,24.9,18.3s11,4.5,20.9-7
		c9.5-11.1,21.4-21.6,36.9-22.2c13.3-0.5,25.6,7.8,29.2,19.5c1.7,5.7,1.7,14.1,0.1,23c4.8-13.9,6.6-29.1,4.2-38.3
		c-3.5-13.1-16.6-23.4-31.1-22.8C121,6.5,106.6,17.1,95.9,29.1C84.7,41.6,77.8,39.7,73,36.2C68.2,32.7,59.7,19.8,46.5,15
		c-13.1-4.8-27.4,0.9-34.6,10.1C4.7,34.3,4,49.2,12.3,70.3c2.6,6.6,6.8,13.6,12.2,20.6C23.5,89.3,22.7,87.6,21.9,86"/>
	<path class="st1" d="M123.6,133.2h0.9c1,0,1.8-0.4,1.8-1.3c0-0.6-0.5-1.3-1.8-1.3c-0.4,0-0.6,0-0.9,0.1L123.6,133.2L123.6,133.2z
		 M123.6,137.3h-1.2v-7.4c0.6-0.1,1.2-0.2,2.1-0.2c1.1,0,1.8,0.2,2.3,0.6s0.7,0.8,0.7,1.5c0,1-0.6,1.6-1.4,1.8v0.1
		c0.6,0.1,1.1,0.7,1.2,1.8c0.2,1.1,0.4,1.6,0.5,1.8h-1.2c-0.2-0.2-0.4-0.9-0.5-1.9c-0.2-0.9-0.6-1.3-1.6-1.3h-0.8v3.2H123.6z
		 M124.9,127.8c-2.9,0-5.3,2.5-5.3,5.6s2.4,5.6,5.3,5.6c2.9,0,5.3-2.5,5.3-5.6S127.8,127.8,124.9,127.8L124.9,127.8z M124.9,126.8
		c3.6,0,6.5,2.9,6.5,6.6c0,3.7-2.9,6.6-6.5,6.6s-6.5-2.9-6.5-6.6C118.3,129.7,121.3,126.8,124.9,126.8L124.9,126.8z"/>
</g>
<g>
	<path class="st1" d="M244.3,228.3c0-0.2,0.2-0.3,0.4-0.3h0.3c0.1,0,0.3,0.1,0.4,0.2l4.8,8.9l0,0l4.8-8.9c0.1-0.1,0.2-0.2,0.4-0.2
		h0.3c0.2,0,0.4,0.1,0.4,0.3l2.3,13.9c0,0.3-0.1,0.5-0.4,0.5h-2.4c-0.2,0-0.4-0.2-0.4-0.3l-0.9-6.4l0,0l-3.5,6.7
		c-0.1,0.1-0.2,0.2-0.4,0.2H250c-0.1,0-0.3-0.1-0.4-0.2l-3.5-6.7l0,0l-0.9,6.4c0,0.2-0.2,0.3-0.4,0.3h-2.4c-0.2,0-0.4-0.2-0.4-0.5
		L244.3,228.3z"/>
	<path class="st1" d="M264.5,228.6c0-0.2,0.2-0.4,0.4-0.4h2.5c0.2,0,0.4,0.2,0.4,0.4v13.7c0,0.2-0.2,0.4-0.4,0.4h-2.5
		c-0.2,0-0.4-0.2-0.4-0.4V228.6z"/>
	<path class="st1" d="M273.9,240.7l1-1.7c0.2-0.3,0.6-0.2,0.7-0.1c0.1,0,1.6,1.1,2.9,1.1c0.8,0,1.4-0.5,1.4-1.2
		c0-0.9-0.7-1.5-2.1-2.1c-1.8-0.7-4-2.1-4-4.6c0-2,1.6-4.1,4.8-4.1c2.2,0,3.8,1.1,4.4,1.6c0.2,0.1,0.2,0.5,0.1,0.7l-1.1,1.6
		c-0.1,0.2-0.5,0.4-0.7,0.3c-0.2-0.1-1.7-1.2-3-1.2c-0.7,0-1.3,0.5-1.3,1.1c0,0.8,0.6,1.3,2.3,2c1.6,0.6,4.2,1.9,4.2,4.7
		c0,2.1-1.8,4.3-4.9,4.3c-2.7,0-4.2-1.1-4.7-1.6C273.8,241.1,273.8,241,273.9,240.7z"/>
	<path class="st1" d="M288.7,240.7l1-1.7c0.2-0.3,0.6-0.2,0.7-0.1c0.1,0,1.6,1.1,2.9,1.1c0.8,0,1.4-0.5,1.4-1.2
		c0-0.9-0.7-1.5-2.1-2.1c-1.8-0.7-4-2.1-4-4.6c0-2,1.6-4.1,4.8-4.1c2.2,0,3.8,1.1,4.4,1.6c0.2,0.1,0.2,0.5,0.1,0.7l-1.1,1.6
		c-0.1,0.2-0.5,0.4-0.7,0.3c-0.2-0.1-1.7-1.2-3-1.2c-0.7,0-1.3,0.5-1.3,1.1c0,0.8,0.6,1.3,2.3,2c1.6,0.6,4.2,1.9,4.2,4.7
		c0,2.1-1.8,4.3-4.9,4.3c-2.7,0-4.2-1.1-4.7-1.6C288.6,241.1,288.5,241,288.7,240.7z"/>
	<path class="st1" d="M304.3,228.6c0-0.2,0.2-0.4,0.4-0.4h2.5c0.2,0,0.4,0.2,0.4,0.4v13.7c0,0.2-0.2,0.4-0.4,0.4h-2.5
		c-0.2,0-0.4-0.2-0.4-0.4V228.6z"/>
	<path class="st1" d="M313.7,240.7l1-1.7c0.2-0.3,0.6-0.2,0.7-0.1c0.1,0,1.6,1.1,2.9,1.1c0.8,0,1.4-0.5,1.4-1.2
		c0-0.9-0.7-1.5-2.1-2.1c-1.8-0.7-4-2.1-4-4.6c0-2,1.6-4.1,4.8-4.1c2.2,0,3.8,1.1,4.4,1.6c0.2,0.1,0.2,0.5,0.1,0.7l-1.1,1.6
		c-0.1,0.2-0.5,0.4-0.7,0.3c-0.2-0.1-1.7-1.2-3-1.2c-0.7,0-1.3,0.5-1.3,1.1c0,0.8,0.6,1.3,2.3,2c1.6,0.6,4.2,1.9,4.2,4.7
		c0,2.1-1.8,4.3-4.9,4.3c-2.7,0-4.2-1.1-4.7-1.6C313.6,241.1,313.5,241,313.7,240.7z"/>
	<path class="st1" d="M328.4,240.7l1-1.7c0.2-0.3,0.6-0.2,0.7-0.1c0.1,0,1.6,1.1,2.9,1.1c0.8,0,1.4-0.5,1.4-1.2
		c0-0.9-0.7-1.5-2.1-2.1c-1.8-0.7-4-2.1-4-4.6c0-2,1.6-4.1,4.8-4.1c2.2,0,3.8,1.1,4.4,1.6c0.2,0.1,0.2,0.5,0.1,0.7l-1.1,1.6
		c-0.1,0.2-0.5,0.4-0.7,0.3c-0.2-0.1-1.7-1.2-3-1.2c-0.7,0-1.3,0.5-1.3,1.1c0,0.8,0.6,1.3,2.3,2c1.6,0.6,4.2,1.9,4.2,4.7
		c0,2.1-1.8,4.3-4.9,4.3c-2.7,0-4.2-1.1-4.7-1.6C328.3,241.1,328.3,241,328.4,240.7z"/>
	<path class="st1" d="M344,228.6c0-0.2,0.2-0.4,0.4-0.4h2.5c0.2,0,0.4,0.2,0.4,0.4v13.7c0,0.2-0.2,0.4-0.4,0.4h-2.5
		c-0.2,0-0.4-0.2-0.4-0.4V228.6z"/>
	<path class="st1" d="M354.3,228.6c0-0.2,0.2-0.4,0.4-0.4h5c2.5,0,4.6,2.1,4.6,4.6c0,2.6-2.1,4.7-4.6,4.7h-2.2v4.9
		c0,0.2-0.2,0.4-0.4,0.4h-2.4c-0.2,0-0.4-0.2-0.4-0.4V228.6z M359.5,234.4c0.9,0,1.6-0.7,1.6-1.6s-0.7-1.5-1.6-1.5h-2v3.2h2V234.4z"
		/>
	<path class="st1" d="M369.8,228.6c0-0.2,0.2-0.4,0.4-0.4h5c2.5,0,4.6,2.1,4.6,4.6c0,2.6-2.1,4.7-4.6,4.7H373v4.9
		c0,0.2-0.2,0.4-0.4,0.4h-2.4c-0.2,0-0.4-0.2-0.4-0.4V228.6z M375,234.4c0.9,0,1.6-0.7,1.6-1.6s-0.7-1.5-1.6-1.5h-2v3.2h2V234.4z"/>
	<path class="st1" d="M385.3,228.6c0-0.2,0.2-0.4,0.4-0.4h2.5c0.2,0,0.4,0.2,0.4,0.4v13.7c0,0.2-0.2,0.4-0.4,0.4h-2.5
		c-0.2,0-0.4-0.2-0.4-0.4V228.6z"/>
</g>
</svg>
