<?xml version="1.0" standalone="no"?>
<!DOCTYPE svg PUBLIC "-//W3C//DTD SVG 20010904//EN"
 "http://www.w3.org/TR/2001/REC-SVG-20010904/DTD/svg10.dtd">
<svg version="1.0" xmlns="http://www.w3.org/2000/svg"
 width="512.000000pt" height="512.000000pt" viewBox="0 0 512.000000 512.000000"
 preserveAspectRatio="xMidYMid meet">
<metadata>
Created by potrace 1.14, written by Peter Selinger 2001-2017
</metadata>
<g transform="translate(0.000000,512.000000) scale(0.100000,-0.100000)"
fill="#000000" stroke="none">
<path d="M3682 4954 c-177 -31 -366 -117 -547 -248 -104 -76 -116 -86 -303
-274 -216 -216 -296 -270 -409 -277 -61 -4 -128 14 -175 47 -18 12 -96 86
-173 163 -204 206 -285 271 -421 339 -223 111 -461 106 -694 -15 -256 -132
-381 -349 -380 -654 0 -95 4 -136 25 -260 22 -135 108 -382 188 -540 46 -93
196 -327 217 -340 7 -4 5 3 -4 17 -37 57 -139 327 -162 430 -71 321 -26 549
141 713 39 39 78 75 86 80 43 32 136 79 197 99 289 98 565 10 862 -274 202
-194 245 -221 347 -221 45 0 71 7 132 37 63 31 93 55 176 142 205 215 302 309
387 372 91 69 237 148 323 175 300 95 598 32 800 -170 107 -106 166 -223 191
-380 6 -35 5 -268 0 -305 -3 -14 -7 -50 -10 -80 -11 -114 76 218 99 380 40
266 20 471 -59 628 -157 311 -487 476 -834 416z"/>
<path d="M2404 3353 c-227 -76 -269 -476 -72 -689 57 -61 119 -89 198 -89 53
0 72 5 107 27 110 71 165 196 158 357 -13 260 -206 456 -391 394z"/>
<path d="M4193 3330 c-128 -42 -238 -142 -377 -345 -110 -161 -178 -246 -281
-350 -212 -215 -485 -362 -760 -410 -84 -14 -234 -21 -280 -12 -11 3 -41 8
-68 11 -164 24 -325 113 -652 357 -307 231 -329 242 -445 242 -65 1 -84 -4
-138 -31 -34 -18 -62 -36 -62 -40 0 -27 326 -352 459 -458 13 -10 38 -31 55
-45 113 -94 416 -303 514 -353 17 -9 32 -22 32 -28 0 -6 -47 -92 -104 -192
-130 -225 -144 -250 -206 -361 -28 -49 -66 -115 -83 -145 -95 -164 -211 -385
-222 -423 -18 -59 -10 -107 21 -134 58 -52 113 -25 249 123 208 225 230 249
347 364 150 149 207 180 332 185 151 6 276 -64 418 -232 114 -135 182 -235
452 -653 135 -210 268 -298 390 -257 56 18 63 -5 -89 312 -157 329 -466 938
-641 1260 l-43 80 100 60 c101 60 266 179 369 264 86 71 349 337 426 431 190
230 380 508 459 672 48 99 52 114 37 119 -32 12 -159 6 -209 -11z"/>
<path d="M3445 1969 c-71 -35 -97 -75 -97 -150 0 -185 255 -222 312 -46 15 49
6 102 -26 144 -46 61 -126 82 -189 52z m130 -33 c55 -36 77 -118 48 -176 -50
-97 -168 -103 -225 -12 -25 41 -26 101 -1 143 35 60 121 82 178 45z"/>
<path d="M3449 1903 c-5 -41 -2 -173 4 -173 4 0 10 0 15 0 4 0 7 12 7 28 1 37
11 51 34 45 12 -3 23 -18 28 -41 5 -22 15 -37 23 -37 17 0 16 37 -3 74 -9 19
-9 25 1 28 20 7 15 61 -7 73 -23 12 -101 14 -102 3z m86 -34 c8 -24 -1 -36
-29 -41 -14 -2 -21 5 -27 24 -8 31 -4 38 27 38 14 0 25 -8 29 -21z"/>
</g>
</svg>
